<svg xmlns="http://www.w3.org/2000/svg" viewBox="0 0 16 16" width="16" height="16" fill="none">
  <rect width="16" height="16" rx="3" fill="#121212"/>
  <path d="M8 1.5v13M8 3.25C5.65 1.85 3.3 2.3 1.75 3.6c1.85-.2 3.8.2 5.55 1.55M8 3.25c2.35-1.4 4.7-.95 6.25.35-1.85-.2-3.8.2-5.55 1.55M8 13.25c-2.3-1-3.05-2.65-1.35-4.15-2 .8-2.35 2.95-.35 4M8 13.25c2.3-1 3.05-2.65 1.35-4.15 2 .8 2.35 2.95.35 4" stroke="white" stroke-width="1.1" stroke-linecap="round" stroke-linejoin="round"/>
  <circle cx="8" cy="1.8" r="1.1" fill="white"/>
</svg>
